<svg data-v-423bf9ae="" xmlns="http://www.w3.org/2000/svg" viewBox="0 0 183.10985296544894 60" class="font"><!----><!----><!----><g data-v-423bf9ae="" id="f5dc813d-18cf-4aa2-8690-5fcb3d4f1d34" fill="black" transform="matrix(3.380281690140845,0,0,3.380281690140845,-0.13521466136607785,-7.3014085024175515)"><path d="M5.12 5.98L5.12 5.98Q5.12 8.41 5.31 10.19L5.31 10.19Q5.31 10.32 5.49 11.91Q5.67 13.50 5.67 13.89Q5.67 14.28 5.45 14.62Q5.24 14.97 4.83 14.97L4.83 14.97Q3.82 14.97 2.69 13.98Q1.57 12.99 0.81 11.47Q0.04 9.95 0.04 8.57L0.04 8.57Q0.04 6.78 0.67 5.35Q1.30 3.92 2.62 3.04Q3.93 2.16 5.75 2.16L5.75 2.16Q7.50 2.16 8.34 3.70L8.34 3.70Q8.76 4.45 8.76 5.24Q8.76 6.03 8.59 6.78Q8.41 7.52 8.12 8.06Q7.83 8.60 7.53 9.03Q7.22 9.46 6.89 9.77L6.89 9.77Q6.31 10.29 6.14 10.39Q5.96 10.49 5.87 10.49L5.87 10.49Q5.63 10.49 5.63 10.19L5.63 10.19Q5.63 10.04 5.84 9.94L5.84 9.94Q7.50 8.76 7.50 6.96L7.50 6.96Q7.50 6.03 7.21 5.35Q6.92 4.66 6.58 4.28Q6.24 3.89 5.68 3.63Q5.11 3.37 4.40 3.37L4.40 3.37Q2.72 3.37 1.76 4.58Q0.80 5.80 0.80 7.55L0.80 7.55Q0.80 8.79 1.43 10.09Q2.06 11.40 2.99 12.23Q3.92 13.06 4.77 13.06L4.77 13.06Q4.96 13.06 5.00 12.68L5.00 12.68Q4.98 12.40 4.84 11.49L4.84 11.49Q4.52 9.24 4.52 6.27L4.52 6.27Q4.52 5.99 4.66 5.80Q4.79 5.60 5.04 5.60L5.04 5.60Q5.12 5.60 5.12 5.98ZM6.93 12.29L6.93 12.29L6.55 12.32Q6.30 12.32 6.30 12.19L6.30 12.19Q6.30 12.00 6.80 11.45Q7.29 10.89 7.69 10.89L7.69 10.89Q7.85 10.89 7.99 10.99Q8.12 11.09 8.13 11.23L8.13 11.23L8.20 11.86Q8.25 11.91 8.29 11.91Q8.33 11.91 8.51 11.69L8.51 11.69Q9.10 11.00 9.56 11.00L9.56 11.00Q9.74 11.00 9.86 11.06Q9.97 11.12 10.12 11.28Q10.26 11.44 10.28 11.45L10.28 11.45Q10.37 11.41 10.47 11.41L10.47 11.41Q10.63 11.41 10.63 11.60Q10.63 11.79 10.08 12.30Q9.53 12.81 9.27 12.81Q9.00 12.81 8.82 12.57Q8.64 12.33 8.55 12.33L8.55 12.33Q8.23 12.33 8.23 12.67L8.23 12.67Q8.23 12.92 8.46 13.52Q8.69 14.13 8.69 14.24L8.69 14.24Q8.69 14.52 8.41 14.68Q8.12 14.84 7.78 14.84Q7.43 14.84 7.22 14.73Q7.01 14.62 7.01 14.42L7.01 14.42L7.41 12.73Q7.41 12.29 6.93 12.29ZM13.68 12.33L13.68 12.33L13.62 12.73Q13.62 12.98 13.84 13.25Q14.06 13.52 14.35 13.52L14.35 13.52Q14.57 13.52 14.71 13.43L14.71 13.43Q15.02 13.22 15.10 13.14Q15.18 13.06 15.35 13.06Q15.53 13.06 15.53 13.19L15.53 13.19Q15.53 13.33 14.87 14.07L14.87 14.07Q14.66 14.31 14.25 14.57Q13.85 14.84 13.53 14.84Q13.22 14.84 13.05 14.73Q12.89 14.63 12.82 14.41L12.82 14.41Q12.74 14.10 12.74 13.65L12.74 13.65Q12.74 13.59 12.67 13.59Q12.60 13.59 12.35 13.87L12.35 13.87Q11.56 14.69 11.08 14.69Q10.60 14.69 10.34 14.43Q10.08 14.18 10.08 13.79L10.08 13.79Q10.08 13.10 10.44 12.48Q10.81 11.86 11.31 11.48L11.31 11.48Q12.43 10.65 13.05 10.65L13.05 10.65Q13.97 10.68 13.97 11.31L13.97 11.31Q13.97 11.54 13.78 11.75Q13.58 11.97 13.41 11.97Q13.24 11.97 12.95 11.68Q12.66 11.38 12.31 11.38Q11.96 11.38 11.73 11.67Q11.51 11.96 11.51 12.40L11.51 12.40Q11.51 13.13 12.28 13.13L12.28 13.13Q12.59 13.13 12.79 12.98Q12.99 12.82 13.08 12.64L13.08 12.64Q13.31 12.17 13.51 12.17L13.51 12.17Q13.68 12.17 13.68 12.33ZM18.30 18.33L18.30 18.33Q18.63 18.33 18.63 15.55L18.63 15.55Q18.63 14.97 18.62 14.69L18.62 14.69Q17.74 15.88 17.74 16.83L17.74 16.83Q17.74 17.37 17.87 17.85Q18.00 18.33 18.30 18.33ZM16.09 11.06L16.09 11.06L16.03 11.62Q16.03 12.22 16.43 12.63Q16.83 13.05 17.40 13.06L17.40 13.06Q17.75 13.05 18.05 12.86Q18.35 12.67 18.48 12.50L18.48 12.50L18.59 12.32Q18.61 11.84 18.73 11.52L18.73 11.52Q18.93 10.98 19.19 10.98L19.19 10.98L19.24 10.98Q19.39 11.03 19.39 11.42L19.39 11.42Q19.39 11.59 19.07 12.08L19.07 12.08L18.96 12.26Q18.96 13.34 18.97 13.86L18.97 13.86Q19.78 13.09 20.17 12.60L20.17 12.60Q20.36 12.46 20.46 12.46Q20.57 12.46 20.57 12.56Q20.57 12.67 20.38 12.82L20.38 12.82Q19.96 13.16 18.98 14.24L18.98 14.24L19.03 16.38Q19.03 18.12 18.79 19.01Q18.55 19.91 17.89 19.91L17.89 19.91Q17.36 19.91 17.01 19.36Q16.66 18.82 16.66 18.17L16.66 18.17Q16.66 16.94 17.17 16.04Q17.68 15.13 18.62 14.21L18.62 14.21Q18.59 13.20 18.59 13.10Q18.59 13.01 18.52 13.01Q18.44 13.01 18.34 13.15L18.34 13.15Q17.85 13.66 17.63 13.87L17.63 13.87Q17.02 14.46 16.41 14.46Q15.81 14.46 15.45 14.06Q15.09 13.65 15.09 12.90Q15.09 12.15 15.38 11.53Q15.67 10.91 15.92 10.91L15.92 10.91Q16.09 10.91 16.09 11.06ZM26.40 13.52L26.40 13.52L26.15 13.57Q25.37 13.57 24.88 12.42Q24.40 11.28 24.40 9.51Q24.40 7.74 24.79 5.77L24.79 5.77Q24.79 5.66 24.65 5.66L24.65 5.66Q24.30 5.68 24.21 5.87Q24.11 6.06 23.88 6.83Q23.66 7.60 23.40 9.00Q23.14 10.40 23.14 11.83Q23.14 13.26 23.50 14.10Q23.86 14.94 24.74 14.94L24.74 14.94Q25.33 14.94 25.95 14.55Q26.57 14.17 26.57 13.73L26.57 13.73Q26.57 13.52 26.40 13.52ZM20.27 5.24L20.27 5.24Q21.81 4.41 24.37 3.71Q26.94 3.01 28.87 2.91L28.87 2.91Q29.18 2.95 29.18 3.23Q29.18 3.50 29.02 3.93Q28.85 4.37 28.60 4.38L28.60 4.38Q27.29 4.47 24.28 5.25Q21.28 6.03 20.08 6.90L20.08 6.90Q19.99 6.94 19.92 6.94L19.92 6.94Q19.80 6.94 19.80 6.71Q19.80 6.47 19.98 5.88Q20.17 5.29 20.27 5.24ZM30.25 12.66L30.25 12.66Q29.60 12.66 29.22 12.32Q28.84 11.98 28.78 11.47L28.78 11.47Q28.56 11.63 28.56 12.09Q28.56 12.54 28.82 12.89Q29.08 13.23 29.46 13.23Q29.85 13.23 30.05 13.03Q30.25 12.84 30.25 12.66ZM30.80 11.72L30.80 11.72Q30.84 11.84 30.90 11.84Q30.97 11.84 31.12 11.77Q31.28 11.69 31.39 11.69Q31.50 11.69 31.50 11.83Q31.50 11.97 31.20 12.29Q30.90 12.61 30.69 12.61L30.69 12.61Q30.39 13.41 29.71 14.09Q29.04 14.77 28.32 14.77L28.32 14.77Q27.82 14.77 27.48 14.44Q27.15 14.11 27.15 13.47Q27.15 12.84 27.68 12.09Q28.21 11.34 28.77 11.34L28.77 11.34L28.77 11.28Q28.77 10.98 28.98 10.79Q29.19 10.60 29.50 10.60L29.50 10.60Q30.45 10.60 30.80 11.72ZM32.07 14.20Q31.85 13.96 31.85 13.61Q31.85 13.26 32.07 13.02Q32.28 12.78 32.61 12.78Q32.93 12.78 33.14 13.02Q33.36 13.26 33.36 13.61Q33.36 13.96 33.14 14.20Q32.93 14.43 32.61 14.43Q32.28 14.43 32.07 14.20ZM37.42 12.18L37.42 12.18Q37.51 13.10 37.51 13.29L37.51 13.29Q37.51 13.59 37.25 13.59Q37.00 13.59 36.97 13.37L36.97 13.37Q36.97 13.33 36.95 13.16Q36.93 12.99 36.90 12.66Q36.88 12.32 36.85 12.03L36.85 12.03L36.81 12.01Q36.08 12.01 36.08 12.87L36.08 12.87Q36.08 13.50 36.75 13.96Q37.42 14.43 38.12 14.43Q38.82 14.43 39.73 13.79L39.73 13.79Q39.47 13.61 38.98 13.23L38.98 13.23Q37.94 12.42 37.42 12.18ZM36.71 5.98Q36.86 5.98 36.94 6.18Q37.02 6.38 37.02 6.58Q37.02 6.78 37.32 10.88L37.32 10.88Q37.79 10.74 38.20 10.74Q38.61 10.74 39.06 10.91Q39.51 11.09 39.75 11.24Q39.98 11.40 40.49 11.79Q41.01 12.18 41.13 12.26L41.13 12.26Q41.50 11.61 41.50 10.88Q41.50 10.16 40.82 9.02Q40.14 7.88 39.16 6.85Q38.19 5.81 36.99 5.07Q35.78 4.33 34.85 4.33L34.85 4.33Q34.13 4.33 33.38 5.04L33.38 5.04Q32.79 5.67 32.54 6.19L32.54 6.19Q32.47 6.31 32.35 6.31Q32.23 6.31 32.14 6.24Q32.05 6.16 32.05 6.06L32.05 6.06L32.06 5.96Q32.41 5.32 33.49 4.30L33.49 4.30Q34.02 3.78 34.70 3.42Q35.38 3.07 36.03 3.07Q36.68 3.07 37.55 3.40Q38.42 3.74 39.28 4.38Q40.15 5.01 40.89 5.82Q41.62 6.62 42.08 7.66Q42.53 8.71 42.53 9.86Q42.53 11.02 41.62 12.57L41.62 12.57Q42.14 12.87 42.63 12.87L42.63 12.87Q42.78 12.87 43.04 12.69Q43.29 12.52 43.39 12.52L43.39 12.52Q43.58 12.52 43.58 12.71L43.58 12.71Q43.58 13.10 42.80 13.78Q42.03 14.46 41.27 14.46L41.27 14.46Q40.88 14.46 40.35 14.18L40.35 14.18Q38.50 16.03 36.36 16.03L36.36 16.03Q35.57 16.03 35.16 15.61Q34.75 15.19 34.75 14.39Q34.75 13.59 35.31 12.61Q35.87 11.63 36.76 11.13L36.76 11.13Q36.39 6.97 36.38 6.89Q36.37 6.80 36.28 6.73Q36.19 6.65 36.19 6.50Q36.19 6.36 36.37 6.17Q36.55 5.98 36.71 5.98ZM47.32 12.33L47.32 12.33L47.26 12.73Q47.26 12.98 47.48 13.25Q47.70 13.52 47.99 13.52L47.99 13.52Q48.22 13.52 48.36 13.43L48.36 13.43Q48.66 13.22 48.74 13.14Q48.82 13.06 48.99 13.06Q49.17 13.06 49.17 13.19L49.17 13.19Q49.17 13.33 48.51 14.07L48.51 14.07Q48.30 14.31 47.89 14.57Q47.49 14.84 47.17 14.84Q46.86 14.84 46.70 14.73Q46.54 14.63 46.47 14.41L46.47 14.41Q46.38 14.10 46.38 13.65L46.38 13.65Q46.38 13.59 46.31 13.59Q46.24 13.59 45.99 13.87L45.99 13.87Q45.21 14.69 44.72 14.69Q44.24 14.69 43.98 14.43Q43.72 14.18 43.72 13.79L43.72 13.79Q43.72 13.10 44.09 12.48Q44.45 11.86 44.95 11.48L44.95 11.48Q46.07 10.65 46.69 10.65L46.69 10.65Q47.61 10.68 47.61 11.31L47.61 11.31Q47.61 11.54 47.42 11.75Q47.22 11.97 47.05 11.97Q46.89 11.97 46.59 11.68Q46.30 11.38 45.95 11.38Q45.60 11.38 45.37 11.67Q45.15 11.96 45.15 12.40L45.15 12.40Q45.15 13.13 45.92 13.13L45.92 13.13Q46.23 13.13 46.43 12.98Q46.63 12.82 46.72 12.64L46.72 12.64Q46.96 12.17 47.15 12.17L47.15 12.17Q47.32 12.17 47.32 12.33ZM51.94 18.33L51.94 18.33Q52.28 18.33 52.28 15.55L52.28 15.55Q52.28 14.97 52.26 14.69L52.26 14.69Q51.38 15.88 51.38 16.83L51.38 16.83Q51.38 17.37 51.51 17.85Q51.65 18.33 51.94 18.33ZM49.73 11.06L49.73 11.06L49.67 11.62Q49.67 12.22 50.07 12.63Q50.47 13.05 51.04 13.06L51.04 13.06Q51.39 13.05 51.69 12.86Q52.00 12.67 52.12 12.50L52.12 12.50L52.23 12.32Q52.25 11.84 52.37 11.52L52.37 11.52Q52.57 10.98 52.84 10.98L52.84 10.98L52.88 10.98Q53.03 11.03 53.03 11.42L53.03 11.42Q53.03 11.59 52.71 12.08L52.71 12.08L52.60 12.26Q52.60 13.34 52.61 13.86L52.61 13.86Q53.42 13.09 53.82 12.60L53.82 12.60Q54.00 12.46 54.10 12.46Q54.21 12.46 54.21 12.56Q54.21 12.67 54.03 12.82L54.03 12.82Q53.61 13.16 52.63 14.24L52.63 14.24L52.67 16.38Q52.67 18.12 52.43 19.01Q52.19 19.91 51.53 19.91L51.53 19.91Q51.00 19.91 50.65 19.36Q50.30 18.82 50.30 18.17L50.30 18.17Q50.30 16.94 50.81 16.04Q51.32 15.13 52.26 14.21L52.26 14.21Q52.23 13.20 52.23 13.10Q52.23 13.01 52.16 13.01Q52.08 13.01 51.98 13.15L51.98 13.15Q51.49 13.66 51.27 13.87L51.27 13.87Q50.67 14.46 50.06 14.46Q49.45 14.46 49.09 14.06Q48.73 13.65 48.73 12.90Q48.73 12.15 49.02 11.53Q49.31 10.91 49.56 10.91L49.56 10.91Q49.73 10.91 49.73 11.06Z"></path></g><!----><!----></svg>